<svg id="Layer_1" data-name="Layer 1" xmlns="http://www.w3.org/2000/svg" viewBox="0 0 109.49 108.81"><defs><style>.cls-1{fill:#2d52f7;}</style></defs><title>Artboard 2 copy 3</title><polygon class="cls-1" points="54.75 10.15 69.24 39.52 101.65 44.23 78.2 67.09 83.74 99.37 54.75 84.13 25.76 99.37 31.3 67.09 7.84 44.23 40.25 39.52 54.75 10.15"/><path d="M85.92,102.37,54.75,86,23.58,102.37l6-34.71L4.31,43.08,39.16,38,54.75,6.44,70.33,38l34.85,5.07L80,67.66ZM54.75,82.27,81.55,96.36,76.43,66.52,98.12,45.38,68.15,41,54.75,13.86,41.35,41l-30,4.36L33.06,66.52,27.94,96.36Z"/></svg>