<svg id="Layer_1" data-name="Layer 1" xmlns="http://www.w3.org/2000/svg" viewBox="0 0 109.49 108.81"><defs><style>.cls-1{fill:#2d52f7;}.cls-2{fill:#fff;}</style></defs><title>Artboard 2 copy 9</title><circle class="cls-1" cx="54.75" cy="54.41" r="40.94"/><path d="M54.75,97.21a42.8,42.8,0,1,1,42.8-42.8A42.85,42.85,0,0,1,54.75,97.21Zm0-81.88A39.08,39.08,0,1,0,93.82,54.4,39.12,39.12,0,0,0,54.75,15.33Z"/><polygon class="cls-2" points="50.92 55.44 51.02 24.56 58.08 24.56 58.08 52.1 73.94 67.52 69.08 72.65 50.92 55.44"/><path d="M57.15,25.49V52.9l.58.55,14.89,14.1L69,71.34,52,55.12V25.49h5.2M59,23.63H50.09V55.9l.19.22L69.12,74l6.13-6.48L59,52.1V23.63Z"/></svg>