<svg id="Layer_1" data-name="Layer 1" xmlns="http://www.w3.org/2000/svg" viewBox="0 0 247.49 265.49"><defs><style>.cls-1{fill:#2d52f7;}.cls-2{opacity:0.3;}</style></defs><title>Artboard 2</title><polygon class="cls-1" points="86.14 58.51 140.22 112.6 194.3 58.51 86.14 58.51"/><g class="cls-2"><path class="cls-1" d="M240.69,167.43a19.18,19.18,0,0,1-19.18,19.18h-47.2a19.18,19.18,0,1,1,0,38.36H65.12a19.18,19.18,0,0,1,0-38.36h47.2a19.18,19.18,0,1,1,0-38.36H221.51a19.19,19.19,0,0,1,19.18,19.18Z"/></g><path d="M135.79,120.31,47.31,31.83h177Zm-75.15-83,75.15,75.15,75.15-75.15Z"/><path d="M189,251.47H82.57l53.22-24Zm-80.76-5.52h55.09l-27.54-12.42Z"/><rect x="133.03" y="113.89" width="5.52" height="116.61"/><rect x="159.78" y="30.47" width="45.36" height="5.52" transform="translate(49.82 162.85) rotate(-54.66)"/><rect x="133.48" y="81.61" width="25.46" height="5.52" transform="translate(-7.19 154.83) rotate(-54.66)"/><path d="M157.82,77.21a9.62,9.62,0,0,1-5.93-1.91c-5.29-4.06-5.07-12.94.51-20.21s14.1-9.79,19.39-5.73h0c2.65,2,4,5.48,3.78,9.45A21.32,21.32,0,0,1,162,76.5,13.11,13.11,0,0,1,157.82,77.21ZM165.88,53c-2.82,0-6.5,2.09-9.11,5.49-3.51,4.57-4.22,10.4-1.53,12.47,1.6,1.22,3.81.74,5,.35a15.85,15.85,0,0,0,9.82-12.8c.08-1.24,0-3.5-1.63-4.73A4.1,4.1,0,0,0,165.88,53Z"/><path d="M57.72,136.72,51.5,120.1l-16.61-6.22,16.61-6.22,6.22-16.61,6.22,16.61,16.61,6.22L63.94,120.1ZM45.39,113.89l9,3.36,3.36,9,3.36-9,9-3.36-9-3.36-3.36-9-3.36,9Z"/><path d="M202.17,168.41,196.78,154l-14.39-5.39,14.39-5.39,5.39-14.39,5.39,14.39L222,148.63,207.56,154Zm-9.28-19.78,6.75,2.53,2.53,6.75,2.53-6.75,6.75-2.53-6.75-2.53-2.53-6.75-2.53,6.75Z"/><path d="M101.32,206.42l-4.6-12.28-12.28-4.6L96.73,185l4.6-12.28,4.6,12.28,12.28,4.6-12.28,4.6Zm-6.38-16.87,4.64,1.74,1.74,4.64,1.74-4.64,4.64-1.74-4.64-1.74-1.74-4.64-1.74,4.64Z"/><g class="cls-2"><path class="cls-1" d="M84.27,64.9H26a19.18,19.18,0,1,0,0,38.36h96.64Z"/></g></svg>