<svg id="Layer_1" data-name="Layer 1" xmlns="http://www.w3.org/2000/svg" viewBox="0 0 109.49 108.81"><defs><style>.cls-1{fill:#2d52f7;}.cls-2{fill:#fff;}</style></defs><title>Artboard 2 copy 6</title><rect class="cls-1" x="25.64" y="7.45" width="57" height="94.93"/><path d="M84.31,104.06H24V5.78H84.31Zm-57-3.34H81V9.13H27.31Z"/><rect class="cls-2" x="35.07" y="19.58" width="38.14" height="57.46"/><path d="M71.54,21.25V75.36H36.74V21.25H71.54m3.34-3.34H33.4v60.8H74.88V17.91Z"/><rect class="cls-2" x="41.8" y="87.21" width="24.67" height="6.8" rx="2.62" ry="2.62"/><path d="M63.85,88a1.79,1.79,0,0,1,1.79,1.79v1.56a1.79,1.79,0,0,1-1.79,1.79H44.43a1.79,1.79,0,0,1-1.79-1.79V89.83A1.79,1.79,0,0,1,44.43,88H63.85m0-1.67H44.43A3.46,3.46,0,0,0,41,89.83v1.56a3.46,3.46,0,0,0,3.46,3.46H63.85a3.46,3.46,0,0,0,3.46-3.46V89.83a3.46,3.46,0,0,0-3.46-3.46Z"/></svg>