<svg id="Layer_1" data-name="Layer 1" xmlns="http://www.w3.org/2000/svg" viewBox="0 0 109.49 108.81"><defs><style>.cls-1{fill:#2d52f7;}.cls-2{fill:#fff;}</style></defs><title>Artboard 2 copy 7</title><path class="cls-1" d="M21.51,38A33.24,33.24,0,1,1,88,38c0,18.36-33.24,65-33.24,65S21.51,56.38,21.51,38Z"/><path d="M54.75,105.87,53.42,104C52,102.08,19.88,56.69,19.88,38a34.87,34.87,0,0,1,69.74,0c0,18.67-32.17,64.06-33.54,66Zm0-99.45A31.64,31.64,0,0,0,23.14,38c0,15.58,25.44,53.27,31.6,62.18C60.91,91.3,86.35,53.59,86.35,38A31.64,31.64,0,0,0,54.75,6.42Z"/><path class="cls-2" d="M54.75,50a12,12,0,1,1,12-12A12,12,0,0,1,54.75,50Z"/><path d="M54.75,27.65A10.38,10.38,0,1,1,44.37,38,10.39,10.39,0,0,1,54.75,27.65m0-3.27A13.64,13.64,0,1,0,68.39,38,13.64,13.64,0,0,0,54.75,24.38Z"/></svg>