<svg fill="#FFFFFF" xmlns="http://www.w3.org/2000/svg" xmlns:xlink="http://www.w3.org/1999/xlink" version="1.1" x="0px" y="0px" viewBox="0 0 100 100" style="enable-background:new 0 0 100 100;" xml:space="preserve"><style type="text/css">
	.st0{fill:#FFFFFF;}
	.st1{fill:#FFFFFF;}
</style><g><g><path class="st0" d="M42.6,55.4c0.6-0.9,0.3-2.1-0.5-2.7c-0.8-0.6-1.7-0.5-2.5-0.1c-0.9,0.4-1.2,1.7-0.7,2.5    c0.6,0.9,1.6,1.1,2.5,0.7C41.2,55.9,41,56,40.8,56c-0.3-0.1-0.6-0.1-1-0.2c-0.1-0.1-0.1-0.1-0.2-0.1c-0.1-0.3-0.3-0.5-0.4-0.8    c0-0.1,0-0.2-0.1-0.4c0.1-0.3,0.1-0.6,0.2-1c0,0,0,0.1-0.1,0.1c-0.5,0.8-0.1,2.1,0.7,2.5C40.9,56.6,42,56.3,42.6,55.4L42.6,55.4z"></path></g></g><g><g><path class="st0" d="M56.2,55.8c2.4,0,2.4-3.7,0-3.7C53.8,52.1,53.8,55.8,56.2,55.8L56.2,55.8z"></path></g></g><g><g><path class="st0" d="M62.3,59.9c-5.8,8.6-17,10.4-25.4,4.5c-1.9-1.4-3.8,1.9-1.9,3.2c10.2,7.1,23.7,4.4,30.5-5.8    C66.8,59.8,63.6,57.9,62.3,59.9L62.3,59.9z"></path></g></g><path class="st1" d="M53.5,14.7c-2.1-12.7-22-6.4-20.9,5c1.1-0.8,2.1-1.6,3.2-2.4c-10.6-2.5-21,8.9-17.2,19.4  c4.1,11.2,18.2,10.7,25.3,3.2c-1.4-0.4-2.8-0.7-4.2-1.1c3.4,11.1,16.8,7.6,20.9-1c-1.4,0-2.9,0-4.3,0c3.3,7.7,16.4,8.2,20.5,1  c2.1-3.7,2.1-9.1,0.5-13c-1.8-4.1-5.9-5.6-10-6.6c0.4,1.4,0.7,2.8,1.1,4.2c5.7-4.6,0.4-13.8-5.3-15.7c-5.7-1.9-10.2,2.6-14.1,6.2  c-2.4,2.2,1.2,5.7,3.5,3.5c1.5-1.4,3.1-2.9,4.8-4c1.7-1.1,2.9-1.8,5-0.6c1.8,1,4.9,5.2,2.5,7.1c-1.5,1.2-0.6,3.8,1.1,4.2  c5,1.2,8,3.4,7.4,9c-0.4,3.3-1.9,5.6-5.3,5.8c-2.9,0.2-6.1-0.7-7.3-3.5c-0.7-1.7-3.6-1.6-4.3,0c-2,4.2-9.5,9.4-11.7,2.2  c-0.5-1.7-2.8-2.5-4.2-1.1c-4.5,4.7-13,6.4-16.6-0.4c-3.6-6.6,3.6-15.5,10.7-13.8c1.4,0.3,3.3-0.7,3.2-2.4C37,14,47.5,9,48.6,16  C49.2,19.2,54,17.8,53.5,14.7L53.5,14.7z"></path><path class="st1" d="M23.8,44c0.4,7.2,0.7,14.5,1.1,21.7C25.1,71,24.7,77,26,82.2c2.6,10.7,17,8.7,25.3,8.1  c8.8-0.6,19.1-1.6,20.7-12c1-6,0.7-12.5,0.5-18.6c-0.1-6,0.3-13.2-1.8-18.9c-1.1-3-6-1.7-4.8,1.3c1.8,4.7,1.5,10.6,1.6,15.6  c0.1,4.4,0.1,8.9,0,13.4c-0.2,5.1,0.2,10.5-5.4,12.6c-3.9,1.5-8.4,1.5-12.5,1.7c-4.3,0.3-9.5,1.1-13.7-0.2  c-5.8-1.7-5.4-6.5-5.6-11.7c-0.5-9.9-1-19.7-1.5-29.6C28.6,40.8,23.6,40.8,23.8,44L23.8,44z"></path><path class="st1" d="M70,76.3c12,4.8,13.7-8.5,12.7-17.3c-0.4-3.7-0.9-9.1-4.4-11.4c-3-2-6.2-0.6-8.1,2.1c-1.8,2.7,2.5,5.2,4.3,2.5  c1.5-2.2,2.8,4.3,2.7,4.1c0.4,2,0.6,4,0.8,6c0.2,4,0.1,11.9-6.7,9.2C68.3,70.3,67,75.1,70,76.3L70,76.3z"></path></svg>